<svg xmlns="http://www.w3.org/2000/svg"  viewBox="0 0 40 40" width="70px" height="70px"><path fill="#ffeea3" d="M29.572,23.454l2.431-7.653c1.707-5.373-1.266-11.113-6.64-12.82 c-5.373-1.707-11.113,1.266-12.82,6.64l-0.56,1.764c-0.019,0.059-0.029,0.118-0.046,0.177c-0.824,0.205-1.437,0.944-1.437,1.832 c0,0.733,0.421,1.362,1.031,1.677c0.201,3.414,2.11,6.563,5.142,8.281H13.19c2.482,4.512,3.675,9.666,4.208,15.149h15.57 C29.955,34.593,28.08,29.936,29.572,23.454z"/><path fill="#ba9b48" d="M33.984,39h-17.04L16.9,38.548c-0.588-6.059-1.944-10.951-4.148-14.955l-0.407-0.741h2.695 c-2.291-1.82-3.742-4.51-3.99-7.486C10.396,14.923,10,14.19,10,13.394c0-0.996,0.615-1.873,1.527-2.226l0.54-1.698 C13.486,5.002,17.587,2,22.271,2c1.097,0,2.188,0.17,3.243,0.505c2.727,0.866,4.952,2.742,6.268,5.281 c1.315,2.54,1.563,5.44,0.697,8.166l-2.431,7.653c-1.24,5.395-0.19,10.043,3.314,14.589L33.984,39z M17.851,38h14.125 c-3.222-4.547-4.14-9.23-2.891-14.658l2.441-7.692c0.785-2.472,0.561-5.101-0.632-7.403s-3.211-4.003-5.683-4.788 C24.255,3.154,23.266,3,22.271,3c-4.247,0-7.965,2.722-9.251,6.772l-0.686,2.205l-0.276,0.069C11.436,12.202,11,12.756,11,13.394 c0,0.519,0.291,0.99,0.76,1.232l0.253,0.131l0.017,0.284c0.195,3.307,2.023,6.25,4.89,7.876l1.65,0.935h-4.548 C16.008,27.73,17.264,32.373,17.851,38z"/><polygon fill="#ffeea3" points="17.827,37.745 17.956,39 32.694,39 31.531,37.375 24.969,37.922"/><circle cx="29.49" cy="25.51" r="1.531" fill="#ffeea3"/><path fill="#ba9b48" d="M29.485,28.04c-0.101,0-0.203-0.006-0.305-0.019l0.119-0.992c0.404,0.043,0.801-0.063,1.12-0.314 c0.318-0.251,0.521-0.611,0.569-1.015c0.048-0.403-0.063-0.801-0.314-1.12c-0.251-0.318-0.611-0.521-1.015-0.569 c-0.458-0.05-0.919,0.103-1.252,0.432l-0.703-0.711c0.55-0.545,1.308-0.809,2.074-0.713c0.668,0.079,1.265,0.414,1.682,0.943 c0.416,0.529,0.601,1.189,0.521,1.857c-0.079,0.668-0.414,1.265-0.943,1.682C30.589,27.854,30.047,28.04,29.485,28.04z"/><path fill="#ba9b48" d="M20.996,2.087c-0.309,0.007-1.293,0.185-1.681,0.324c-0.365,0.131,0.032,0.671,0.032,0.671 l1.712-0.356L20.996,2.087z"/><path fill="#ba9b48" d="M20.996,2.087c-0.309,0.007-1.293,0.185-1.681,0.324c-0.365,0.131,0.032,0.671,0.032,0.671 l1.712-0.356L20.996,2.087z"/><path fill="#ba9b48" d="M20.996,2.087c-0.309,0.007-1.293,0.185-1.681,0.324c-0.365,0.131,0.032,0.671,0.032,0.671 l1.712-0.356L20.996,2.087z"/><path fill="#a16a4a" d="M23.723,0.022c-0.661-0.027-1.324,0.055-1.933,0.27c-1.132,0.399-1.978,1.17-2.32,2.116l0.939,0.34 c0.24-0.662,0.864-1.214,1.713-1.513c0.506-0.179,1.046-0.23,1.595-0.218L23.723,0.022z"/><path fill="none" stroke="#a16a4a" stroke-miterlimit="10" d="M28.467,20.484l1.081-3.669c0.234-0.68,0.937-0.563,0.955,0.248 l0.18,3.208c0.088,0.597,0.424,0.523,0.784-0.027l1.424-2.379c0.252-0.433,0.631-0.342,0.626,0.07l-0.012,4.033"/><circle cx="13" cy="18" r="4.5" fill="#fff"/><path fill="#788b9c" d="M13,23c-2.757,0-5-2.243-5-5s2.243-5,5-5s5,2.243,5,5S15.757,23,13,23z M13,14 c-2.206,0-4,1.794-4,4s1.794,4,4,4s4-1.794,4-4S15.206,14,13,14z"/><g><path fill="#ffc49c" stroke="#a16a4a" stroke-linejoin="round" stroke-miterlimit="10" d="M20,24.5 c-0.213,0-0.423,0.007-0.631-0.002c-1.167-1.251-2.826-2.004-4.673-2.004c-3.473,0-6.293,2.77-6.387,6.22 c-0.822,0.208-1.241,1.309-0.02,1.919c0.292,0.146,6.399,3.443,15.1,0.499c-4.596,1.596-8.884,1.388-11.868,0.686 c-0.223,1.447,1.167,2.681,2.631,2.681c0.122,0,0.238-0.02,0.356-0.036C15.658,36.286,17.685,37.5,20,37.5 c3.59,0,6.5-2.91,6.5-6.5S23.59,24.5,20,24.5z"/><path fill="#ffeea3" d="M19.774,24.5H12.5c-1.1,0-2-0.9-2-2l0,0c0-1.1,0.9-2,2-2h7.274V24.5z"/><path fill="#ba9b48" d="M19.274,24h-1.399H12.5c-0.827,0-1.5-0.673-1.5-1.5s0.673-1.5,1.5-1.5h6.774v0.031h1V20H12.5 c-1.379,0-2.5,1.121-2.5,2.5s1.121,2.5,2.5,2.5h7.774v-1H19.274z"/><path fill="none" stroke="#a16a4a" stroke-miterlimit="10" d="M22.144,28.738c0,0,1.372,1.245,1.324,3.495"/></g><g><circle cx="21.5" cy="18.5" r="5" fill="#fff"/><path fill="#788b9c" d="M21.5,24c-3.032,0-5.5-2.468-5.5-5.5s2.468-5.5,5.5-5.5s5.5,2.468,5.5,5.5S24.532,24,21.5,24z M21.5,14c-2.481,0-4.5,2.019-4.5,4.5s2.019,4.5,4.5,4.5s4.5-2.019,4.5-4.5S23.981,14,21.5,14z"/></g><g><circle cx="12.5" cy="18.5" r=".757" fill="#36404d"/><circle cx="22.5" cy="18.5" r=".757" fill="#36404d"/></g><g><path fill="none" stroke="#a16a4a" stroke-miterlimit="10" d="M23.546,0.516c2.329,0,4.135,1.878,4.135,4.203 c0,0.395-0.055,0.778-0.157,1.141"/></g></svg>